<?xml version="1.0" encoding="UTF-8"?>
<svg id="Layer_1" data-name="Layer 1" xmlns="http://www.w3.org/2000/svg" viewBox="0 0 1920 1080">
  <defs>
    <style>
      .cls-1 {
        fill: #ff6f1a;
      }

      .cls-2 {
        fill: #00753a;
      }

      .cls-3 {
        fill: #fff;
      }
    </style>
  </defs>
  <path d="M1348.27,667.64s0,.04-.04.04c-1.33,1.92-2.7,3.84-4.07,5.76-20.8,28.93-44.64,55.76-69.88,81.11-26.94,27.05-55.79,52.21-85.65,76.05-30,23.72-61.23,45.93-93.49,66.66-16.11,10.38-32.55,20.25-49.4,29.6-16.85,9.35-33.96,18.29-51.81,26.27-8.83,3.99-18.18,7.8-27.38,11.09-9.16,3.29-18.37,6.36-27.6,9.24-18.55,5.8-37.39,10.49-56.39,14.6-38.02,8.06-76.75,12.86-115.66,14.3-9.72.3-19.48.55-29.38.37-9.87-.26-19.62-.74-29.45-1.52-19.66-1.59-39.39-4.43-58.97-9.13-9.72-2.33-19.58-5.32-28.93-8.61-9.42-3.29-18.81-6.98-28.05-11.31-4.65-2.14-9.16-4.4-13.78-6.91-4.73-2.62-9.02-5.21-13.38-8.02-8.61-5.62-16.92-11.79-24.79-18.55-3.99-3.47-7.5-6.84-11.27-10.46-1.55-1.51-3.07-3.07-4.58-4.66-.48-.52-1-1.03-1.44-1.59-.41-.44-.81-.92-1.22-1.4-8.5-9.79-16.11-20.14-22.87-31-.07-.11-.15-.22-.19-.33-76.3-122.86-43.42-308.8,75.12-476.96,10.2-14.41,20.95-28.71,32.37-42.86,1.59-2.03,3.25-4.03,4.95-6.02.3-.33.55-.67.85-1,29.38-35.55,62.67-69.84,99.69-102.13.96-.85,1.96-1.74,2.96-2.59,2.26-1.96,4.51-3.88,6.76-5.8.41-.33.81-.7,1.22-1.03.15-.15.33-.26.48-.41,29.34-24.57,60.45-47.22,93.23-67.36,32.96-20.36,67.99-37.51,103.94-51.95,17.96-7.21,36.1-13.86,54.54-19.88,18.44-6.02,37.14-11.23,56.05-15.81,37.8-9.13,76.53-15.33,115.81-17.44l14.7-.59,14.86-.15c10.01.15,19.69.59,29.6,1.29,19.73,1.48,39.54,4.14,59.16,8.65,9.79,2.22,19.66,5.06,29.15,8.28,9.5,3.21,18.92,6.8,28.23,10.97,4.65,2.11,9.27,4.36,13.82,6.73,2.29,1.22,4.73,2.51,6.98,3.84,2.25,1.33,4.43,2.66,6.61,4.03,8.72,5.47,17.15,11.53,25.13,18.22,4.03,3.36,7.8,6.87,11.46,10.35,1.81,1.7,3.62,3.47,5.39,5.32.96,1.03,1.92,2.07,2.88,3.1,1.29,1.4,2.51,2.81,3.77,4.25,2.66,3.07,5.25,6.21,7.69,9.39.52.63,1,1.22,1.44,1.85,93.15,121.35,64.33,317.3-59.2,494.15Z"/>
  <g>
    <path class="cls-2" d="M1348.23,667.67c-1.33,1.92-2.7,3.84-4.07,5.76-20.8,28.93-44.64,55.76-69.88,81.11-26.94,27.05-55.79,52.21-85.65,76.05-30,23.72-61.23,45.93-93.49,66.66-16.11,10.38-32.55,20.25-49.4,29.6-16.85,9.35-33.96,18.29-51.81,26.27-8.83,3.99-18.18,7.8-27.38,11.09-9.16,3.29-18.37,6.36-27.6,9.24-18.55,5.8-37.39,10.49-56.39,14.6-38.02,8.06-76.75,12.86-115.66,14.3-9.72.3-19.48.55-29.38.37-9.87-.26-19.62-.74-29.45-1.52-19.66-1.59-39.39-4.43-58.97-9.13-9.72-2.33-19.58-5.32-28.93-8.61-9.42-3.29-18.81-6.98-28.05-11.31-4.65-2.14-9.16-4.4-13.78-6.91-4.73-2.62-9.02-5.21-13.38-8.02-8.61-5.62-16.92-11.79-24.79-18.55-3.99-3.47-7.5-6.84-11.27-10.46-1.55-1.51-3.07-3.07-4.58-4.66-.48-.52-1-1.03-1.44-1.59-1.63-1.74-3.22-3.51-4.73-5.28-6.84-8.02-12.97-16.55-18.4-25.5-.33-.55-.63-1.07-.96-1.63-.07-.11-.15-.22-.19-.33-10.24-17.37-17.7-35.95-22.65-55.43-9.87-40.05-8.72-81.77-.89-120.53,7.69-39.02,21.25-76.27,38.21-111.41,8.5-17.59,17.77-34.7,27.9-51.29,10.13-16.52,20.95-32.63,32.37-48.22,22.87-31.15,47.78-60.71,74.75-88.13,26.9-27.45,55.65-53.06,85.39-77.01,59.9-47.81,125.3-88.02,194.1-120.24-64.89,39.43-126.85,83.25-182.35,134.02-27.97,25.27-54.69,51.58-79.48,79.7-24.76,28.08-48.07,57.31-68.84,88.2-10.42,15.41-20.18,31.22-29.26,47.37-9.13,16.15-17.7,32.52-25.28,49.29-15.22,33.51-26.97,68.43-33.11,104.05-3.03,17.96-5.02,35.62-4.77,53.32.19,17.63,2.26,35.18,6.61,51.92,4.32,16.52,10.98,32.78,19.84,47.26,4.47,7.28,9.46,14.15,14.93,20.54,2.77,3.21,5.65,6.24,8.68,9.2,3.1,2.96,6.43,6.13,9.61,8.87,6.5,5.65,13.41,10.83,20.69,15.59,3.58,2.36,7.43,4.69,11.01,6.69,3.66,2,7.65,4.03,11.57,5.88,15.93,7.39,33.11,13.45,50.22,17.77,34.62,8.68,71.43,11.42,108.16,10.83,36.91-.52,73.83-4.25,110.23-11.09,18.18-3.36,36.21-7.69,54.1-12.49,8.94-2.4,17.85-5.03,26.68-7.8,8.76-2.73,17.11-5.8,25.72-9.31,34.18-13.82,67.36-31.63,99.99-50.07,32.63-18.59,64.33-38.91,95.19-60.49,61.71-43.12,120.28-91.38,170.31-148.58Z"/>
    <path class="cls-1" d="M1442.9,364.41c-7.43,39.24-20.92,76.67-37.76,112.04-16.85,35.4-37.4,68.62-60.27,99.99-22.87,31.3-47.78,61.01-74.83,88.53-26.97,27.57-55.76,53.32-85.62,77.34-60.01,48.07-125.67,88.42-194.66,120.76,65.11-39.54,127.26-83.51,182.91-134.5,28.08-25.35,54.87-51.81,79.7-80.04,24.79-28.19,48.15-57.57,68.95-88.61,10.38-15.48,20.18-31.37,29.27-47.59,9.09-16.18,17.62-32.66,25.2-49.51,15.15-33.66,26.79-68.77,32.7-104.53,2.96-18.03,4.73-35.69,4.36-53.47-.33-17.66-2.66-35.25-7.2-51.95-4.54-16.55-11.49-32.7-20.62-47.11-4.54-7.21-9.64-14.04-15.3-20.32-2.85-3.18-5.69-6.13-8.94-9.13-3.22-3.1-6.43-6.06-9.72-8.76-6.58-5.58-13.63-10.68-20.99-15.37-1.85-1.15-3.73-2.29-5.58-3.4-1.85-1.07-3.58-2.03-5.51-3.07-3.88-2.03-7.8-3.95-11.82-5.76-8.06-3.66-16.37-6.91-24.94-9.83-8.5-2.92-16.92-5.32-25.68-7.46-17.4-4.21-35.4-6.87-53.62-8.42-9.05-.78-18.37-1.26-27.42-1.51l-13.67-.11-13.78.26c-36.84,1.15-73.72,6.13-110.08,14.04-18.18,3.92-36.25,8.65-54.17,13.82-17.96,5.1-35.81,10.9-53.43,17.22-70.32,25.05-136.35,61.82-196.65,107.01-15.11,11.23-29.86,22.98-44.34,35.14-14.48,12.16-28.45,24.9-42.42,37.73-13.78,13.01-27.42,26.2-40.57,39.91-11.16,11.27-21.91,22.87-32.66,34.55-2.14,2.36-4.29,4.69-6.47,7.06,13.93-19.1,28.53-37.8,43.79-55.94.3-.33.55-.67.85-1,30.59-36.36,63.78-70.61,99.69-102.13,3.22-2.81,6.47-5.62,9.72-8.39.41-.33.81-.7,1.22-1.03.15-.15.33-.26.48-.41,29.34-24.57,60.45-47.22,93.23-67.36,32.96-20.36,67.99-37.51,103.94-51.95,17.96-7.21,36.1-13.86,54.54-19.88,18.44-6.02,37.14-11.23,56.05-15.81,37.8-9.13,76.53-15.33,115.81-17.44l14.7-.59,14.86-.15c10.01.15,19.69.59,29.6,1.29,19.73,1.48,39.54,4.14,59.16,8.65,9.79,2.22,19.66,5.06,29.15,8.28,9.5,3.21,18.92,6.8,28.23,10.97,4.65,2.11,9.27,4.36,13.82,6.73,2.29,1.22,4.73,2.51,6.98,3.84,2.25,1.33,4.43,2.66,6.61,4.03,8.72,5.47,17.15,11.53,25.13,18.22,4.03,3.36,7.8,6.87,11.46,10.35,1.81,1.7,3.62,3.47,5.39,5.32.96,1.03,1.92,2.07,2.88,3.1.92.96,1.77,1.92,2.66,2.92.41.44.78.89,1.11,1.33,2.73,3.03,5.28,6.17,7.69,9.39.52.63,1,1.22,1.44,1.85,3.07,4.1,5.99,8.35,8.68,12.71,11.12,17.85,19.36,37.06,24.72,57.24,10.49,40.17,9.61,81.99,2.03,120.98Z"/>
  </g>
  <g>
    <path class="cls-3" d="M661.4,842.37c40.43-60.36,85.03-117.57,131.25-173.35,11.46-14.04,23.09-27.93,35.07-41.51,11.88-13.67,23.69-27.42,35.78-40.92,24.11-27.06,49.01-53.4,73.81-79.84,12.55-13.08,25.51-25.78,38.24-38.68,12.75-12.88,25.52-25.77,38.77-38.18,26.3-24.98,52.84-49.77,80.33-73.49,54.94-47.45,112.21-92.61,173.94-130.96-52.75,49.95-104.17,100.22-155.17,151.04-12.54,12.94-25.15,25.77-37.97,38.38-12.73,12.7-25.08,25.82-37.64,38.7-25.4,25.47-50.19,51.61-75.11,77.58l-37.54,38.85c-12.51,12.95-24.63,26.29-37.23,39.16l-74.84,78.09c-49.9,52.13-100.05,104.09-151.68,155.13Z"/>
    <g>
      <path class="cls-3" d="M734.2,576.9c8.89,21.2,21.04,38.68,34.16,55.05,13.27,16.21,27.81,30.95,43.45,44.44,15.63,13.5,32.41,25.69,50.47,36.42,18.19,10.58,37.37,20.02,59.84,25.71-8.85-21.25-20.98-38.75-34.12-55.1-13.27-16.21-27.8-30.96-43.49-44.39-15.68-13.45-32.46-25.64-50.52-36.37-18.2-10.57-37.37-20.03-59.8-25.76Z"/>
      <path class="cls-3" d="M813.96,483.18c8.89,21.2,21.04,38.69,34.17,55.05,13.26,16.21,27.81,30.95,43.44,44.44,15.63,13.5,32.41,25.69,50.47,36.42,18.18,10.58,37.37,20.03,59.84,25.72-8.85-21.25-20.98-38.75-34.12-55.1-13.26-16.21-27.8-30.96-43.49-44.39-15.68-13.45-32.46-25.64-50.52-36.37-18.2-10.57-37.37-20.03-59.8-25.77Z"/>
      <path class="cls-3" d="M897.72,398.05c8.89,21.2,21.04,38.68,34.16,55.05,13.26,16.21,27.81,30.95,43.45,44.44,15.63,13.5,32.41,25.69,50.47,36.42,18.19,10.59,37.37,20.03,59.85,25.71-8.85-21.25-20.99-38.74-34.12-55.1-13.26-16.21-27.81-30.95-43.49-44.39-15.68-13.45-32.46-25.64-50.51-36.37-18.2-10.57-37.37-20.03-59.8-25.76Z"/>
      <path class="cls-3" d="M1040.94,341.26c-18.2-10.57-37.37-20.03-59.8-25.76,8.89,21.2,21.04,38.68,34.16,55.05,13.26,16.21,27.8,30.95,43.45,44.44,15.63,13.5,32.41,25.69,50.47,36.42,18.19,10.58,37.37,20.03,59.85,25.71-8.85-21.25-20.99-38.74-34.12-55.1-13.27-16.21-27.8-30.96-43.49-44.4-15.68-13.45-32.46-25.64-50.52-36.37Z"/>
    </g>
  </g>
</svg>